<?xml version="1.0"?>
<svg xmlns="http://www.w3.org/2000/svg" xmlns:xlink="http://www.w3.org/1999/xlink" xmlns:svgjs="http://svgjs.com/svgjs" version="1.1" width="512" height="512" x="0" y="0" viewBox="0 0 426.667 426.667" style="enable-background:new 0 0 512 512" xml:space="preserve" class=""><g>
<g xmlns="http://www.w3.org/2000/svg">
	<g>
		<g>
			<path d="M40.533,213.333c0-36.48,29.653-66.133,66.133-66.133H192v-40.533h-85.333C47.787,106.667,0,154.453,0,213.333     S47.787,320,106.667,320H192v-40.533h-85.333C70.187,279.467,40.533,249.813,40.533,213.333z" fill="#ffffff" data-original="#000000" style=""/>
			<rect x="128" y="192" width="170.667" height="42.667" fill="#ffffff" data-original="#000000" style=""/>
			<path d="M320,106.667h-85.333V147.2H320c36.48,0,66.133,29.653,66.133,66.133S356.48,279.467,320,279.467h-85.333V320H320     c58.88,0,106.667-47.787,106.667-106.667S378.88,106.667,320,106.667z" fill="#ffffff" data-original="#000000" style=""/>
		</g>
	</g>
</g>
<g xmlns="http://www.w3.org/2000/svg">
</g>
<g xmlns="http://www.w3.org/2000/svg">
</g>
<g xmlns="http://www.w3.org/2000/svg">
</g>
<g xmlns="http://www.w3.org/2000/svg">
</g>
<g xmlns="http://www.w3.org/2000/svg">
</g>
<g xmlns="http://www.w3.org/2000/svg">
</g>
<g xmlns="http://www.w3.org/2000/svg">
</g>
<g xmlns="http://www.w3.org/2000/svg">
</g>
<g xmlns="http://www.w3.org/2000/svg">
</g>
<g xmlns="http://www.w3.org/2000/svg">
</g>
<g xmlns="http://www.w3.org/2000/svg">
</g>
<g xmlns="http://www.w3.org/2000/svg">
</g>
<g xmlns="http://www.w3.org/2000/svg">
</g>
<g xmlns="http://www.w3.org/2000/svg">
</g>
<g xmlns="http://www.w3.org/2000/svg">
</g>
</g></svg>
